<svg height="80" version="1.1" width="100%" xmlns="http://www.w3.org/2000/svg" style="overflow: hidden; position: relative;">
  <text style="text-anchor: start; font: 9px sans-serif; opacity: 0.8;" x="17.0798611111109" y="6" text-anchor="start" font="10px &quot;Arial&quot;" stroke="none" fill="#000000" font-size="9px" opacity="0.8"><tspan dy="3.5">MOD D EFFETTUA GIRO LOC E PROVA FRENO AD ARQUATA</tspan></text>
  <rect x="28.920138888889" y="47" width="116.03472222222217" height="8" r="0" rx="0" ry="0" fill="#000000" stroke="#000" style="cursor: pointer;" stroke-width="0"></rect><text style="text-anchor: middle; font: 9px sans-serif;" x="86.9375" y="37" text-anchor="middle" font="9px sans-serif" stroke="none" fill="#000000" font-size="9px"><tspan dy="3.5">46541/46542</tspan></text><text style="text-anchor: start; font: 9px sans-serif;" x="28.920138888889" y="55" text-anchor="start" font="9px sans-serif" stroke="none" fill="#000000" font-size="9px" transform="matrix(1,0,0,1,0,6.52)"><tspan dy="3.5">29</tspan></text><text style="text-anchor: middle; font: 9px sans-serif;" x="28.920138888889" y="47" text-anchor="left" font="9px sans-serif" stroke="none" fill="#000000" font-size="9px" transform="matrix(0,-1,1,0,-15,56.0118)"><tspan dy="3.5">MI Lte</tspan></text><rect x="17.079861111111" y="47" width="2" height="8" r="0" rx="0" ry="0" fill="#000000" stroke="#000" style="cursor: pointer;" stroke-width="0"></rect><rect x="19.079861111111" y="50" width="11.840277777777777" height="2" r="0" rx="0" ry="0" fill="#000000" stroke="#000" style="cursor: pointer;" stroke-width="0"></rect><text style="text-anchor: middle; font: 9px sans-serif;" x="23" y="60" text-anchor="middle" font="9px sans-serif" stroke="none" fill="#000000" font-size="9px"><tspan dy="3.5">10</tspan></text><text style="text-anchor: end; font: 9px sans-serif; cursor: pointer;" x="144.954861111111" y="47" text-anchor="end" font="9px sans-serif" stroke="none" fill="#000000" font-size="9px" transform="matrix(1,0,0,1,0,26)"><tspan dy="3.5">07</tspan></text><text style="text-anchor: middle; font: 9px sans-serif;" x="144.954861111111" y="47" text-anchor="middle" font="9px sans-serif" stroke="none" fill="#000000" font-size="9px" transform="matrix(0,-1,1,0,93.4548,165.1215)"><tspan dy="3.5">ARQTSC</tspan></text><rect x="144.954861111111" y="47" width="47.361111111111086" height="8" r="0" rx="0" ry="0" fill="#ff6633" stroke="#000" style="cursor: pointer;" stroke-width="0.3"></rect><text style="text-anchor: start; font: 9px sans-serif;" x="168.6354166666665" y="37" text-anchor="start" font="9px sans-serif" stroke="none" fill="#000000" font-size="9px" transform="matrix(0,-1,1,0,134.5521,204.5521)"><tspan dy="-9.700000762939453">GIRO</tspan><tspan dy="13.2" x="168.6354166666665">LOC</tspan><tspan dy="13.2" x="168.6354166666665">ARQTSC</tspan></text><text style="text-anchor: start; font: 9px sans-serif;" x="144.954861111111" y="55" text-anchor="start" font="9px sans-serif" stroke="none" fill="#000000" font-size="9px" transform="matrix(1,0,0,1,0,6.52)"><tspan dy="3.5">07</tspan></text><text style="text-anchor: end; font: 9px sans-serif; cursor: pointer;" x="192.3159722222222" y="47" text-anchor="end" font="9px sans-serif" stroke="none" fill="#000000" font-size="9px" transform="matrix(1,0,0,1,0,26)"><tspan dy="3.5">47</tspan></text><rect x="192.3159722222222" y="47" width="21.3125" height="8" r="0" rx="0" ry="0" fill="#000000" stroke="#000" style="cursor: pointer;" stroke-width="0"></rect><text style="text-anchor: middle; font: 9px sans-serif;" x="202.9722222222222" y="37" text-anchor="middle" font="9px sans-serif" stroke="none" fill="#000000" font-size="9px" transform="matrix(0,-1,1,0,165.9722,206.9722)"><tspan dy="3.5">46541/46542</tspan></text><text style="text-anchor: start; font: 9px sans-serif;" x="192.3159722222222" y="55" text-anchor="start" font="9px sans-serif" stroke="none" fill="#000000" font-size="9px" transform="matrix(1,0,0,1,0,6.52)"><tspan dy="3.5">47</tspan></text>
  <rect x="215.6284722222222" y="50" width="53.28124999999999" height="2" r="0" rx="0" ry="0" fill="#000000" stroke="#000" style="cursor: pointer;" stroke-width="0"></rect>
  <rect x="266.9097222222222" y="47" width="21.3125" height="8" r="0" rx="0" ry="0" fill="#000000" stroke="#000" style="cursor: pointer;" stroke-width="0"></rect><text style="text-anchor: middle; font: 9px sans-serif;" x="277.5659722222222" y="37" text-anchor="middle" font="9px sans-serif" stroke="none" fill="#000000" font-size="9px" transform="matrix(0,-1,1,0,240.566,281.566)"><tspan dy="3.5">46579/46578</tspan></text></svg>